<svg width="528" height="570" viewBox="0 0 528 570" fill="none" xmlns="http://www.w3.org/2000/svg">
<g clip-path="url(#clip0_17_149)">
<path d="M543.407 324H287.593C283.952 324 281 326.961 281 330.614V653.386C281 657.039 283.952 660 287.593 660H543.407C547.048 660 550 657.039 550 653.386V330.614C550 326.961 547.048 324 543.407 324Z" fill="#EDF6FF"/>
<path d="M503.848 367.984H389.787C387.784 367.984 386.161 369.613 386.161 371.622V398.079C386.161 400.088 387.784 401.717 389.787 401.717H503.848C505.851 401.717 507.474 400.088 507.474 398.079V371.622C507.474 369.613 505.851 367.984 503.848 367.984Z" fill="white" stroke="#E7E7E7"/>
<path d="M459.015 382.205H399.017C397.561 382.205 396.38 383.389 396.38 384.85C396.38 386.312 397.561 387.496 399.017 387.496H459.015C460.471 387.496 461.652 386.312 461.652 384.85C461.652 383.389 460.471 382.205 459.015 382.205Z" fill="#77BEFF"/>
<path d="M413.852 362.362H386.82C386.274 362.362 385.831 362.806 385.831 363.354C385.831 363.902 386.274 364.346 386.82 364.346H413.852C414.398 364.346 414.841 363.902 414.841 363.354C414.841 362.806 414.398 362.362 413.852 362.362Z" fill="#82ADD4"/>
<path d="M378.578 367.984H327.152C325.149 367.984 323.526 369.613 323.526 371.622V398.079C323.526 400.088 325.149 401.717 327.152 401.717H378.578C380.581 401.717 382.205 400.088 382.205 398.079V371.622C382.205 369.613 380.581 367.984 378.578 367.984Z" fill="white" stroke="#E7E7E7"/>
<path d="M362.755 382.205H336.382C334.926 382.205 333.745 383.389 333.745 384.85C333.745 386.312 334.926 387.496 336.382 387.496H362.755C364.211 387.496 365.392 386.312 365.392 384.85C365.392 383.389 364.211 382.205 362.755 382.205Z" fill="#77BEFF"/>
<path d="M336.053 362.362H324.185C323.639 362.362 323.196 362.806 323.196 363.354C323.196 363.902 323.639 364.346 324.185 364.346H336.053C336.599 364.346 337.042 363.902 337.042 363.354C337.042 362.806 336.599 362.362 336.053 362.362Z" fill="#82ADD4"/>
<path d="M503.848 414.283H327.152C325.149 414.283 323.526 415.912 323.526 417.921V444.378C323.526 446.387 325.149 448.016 327.152 448.016H503.848C505.851 448.016 507.474 446.387 507.474 444.378V417.921C507.474 415.912 505.851 414.283 503.848 414.283Z" fill="white" stroke="#E7E7E7"/>
<path d="M379.897 428.504H336.382C334.926 428.504 333.745 429.688 333.745 431.15C333.745 432.611 334.926 433.795 336.382 433.795H379.897C381.354 433.795 382.534 432.611 382.534 431.15C382.534 429.688 381.354 428.504 379.897 428.504Z" fill="#77BEFF"/>
<path d="M365.722 408.661H324.185C323.639 408.661 323.196 409.106 323.196 409.654C323.196 410.201 323.639 410.646 324.185 410.646H365.722C366.268 410.646 366.711 410.201 366.711 409.654C366.711 409.106 366.268 408.661 365.722 408.661Z" fill="#82ADD4"/>
<path d="M503.848 460.583H327.152C325.149 460.583 323.526 462.211 323.526 464.22V490.677C323.526 492.686 325.149 494.315 327.152 494.315H503.848C505.851 494.315 507.474 492.686 507.474 490.677V464.22C507.474 462.211 505.851 460.583 503.848 460.583Z" fill="white" stroke="#E7E7E7"/>
<path d="M430.005 474.803H336.382C334.926 474.803 333.745 475.988 333.745 477.449C333.745 478.91 334.926 480.095 336.382 480.095H430.005C431.461 480.095 432.642 478.91 432.642 477.449C432.642 475.988 431.461 474.803 430.005 474.803Z" fill="#77BEFF"/>
<path d="M365.722 454.961H324.185C323.639 454.961 323.196 455.405 323.196 455.953C323.196 456.501 323.639 456.945 324.185 456.945H365.722C366.268 456.945 366.711 456.501 366.711 455.953C366.711 455.405 366.268 454.961 365.722 454.961Z" fill="#82ADD4"/>
<path d="M503.848 506.882H327.152C325.149 506.882 323.526 508.511 323.526 510.52V585.26C323.526 587.269 325.149 588.898 327.152 588.898H503.848C505.851 588.898 507.474 587.269 507.474 585.26V510.52C507.474 508.511 505.851 506.882 503.848 506.882Z" fill="white" stroke="#E7E7E7"/>
<path d="M430.005 521.102H336.382C334.926 521.102 333.745 522.287 333.745 523.748C333.745 525.209 334.926 526.394 336.382 526.394H430.005C431.461 526.394 432.642 525.209 432.642 523.748C432.642 522.287 431.461 521.102 430.005 521.102Z" fill="#77BEFF"/>
<path d="M365.722 501.26H324.185C323.639 501.26 323.196 501.704 323.196 502.252C323.196 502.8 323.639 503.244 324.185 503.244H365.722C366.268 503.244 366.711 502.8 366.711 502.252C366.711 501.704 366.268 501.26 365.722 501.26Z" fill="#82ADD4"/>
</g>
<g clip-path="url(#clip1_17_149)">
<path d="M544.382 -24L287.618 -24C283.963 -24 281 -21.0387 281 -17.3858V305.386C281 309.039 283.963 312 287.618 312H544.382C548.037 312 551 309.039 551 305.386V-17.3858C551 -21.0387 548.037 -24 544.382 -24Z" fill="#FFDEDE"/>
<path d="M504.676 44.4567H327.324C325.313 44.4567 323.684 46.0854 323.684 48.0945V74.5512C323.684 76.5603 325.313 78.189 327.324 78.189H504.676C506.687 78.189 508.316 76.5603 508.316 74.5512V48.0945C508.316 46.0854 506.687 44.4567 504.676 44.4567Z" fill="white" stroke="#E9E9E9"/>
<path d="M386.882 58.6772H336.588C335.126 58.6772 333.941 59.8617 333.941 61.3228C333.941 62.784 335.126 63.9685 336.588 63.9685H386.882C388.344 63.9685 389.529 62.784 389.529 61.3228C389.529 59.8617 388.344 58.6772 386.882 58.6772Z" fill="#F89B9B"/>
<path d="M366.037 38.8347H324.346C323.797 38.8347 323.353 39.2788 323.353 39.8268C323.353 40.3747 323.797 40.8189 324.346 40.8189H366.037C366.585 40.8189 367.029 40.3747 367.029 39.8268C367.029 39.2788 366.585 38.8347 366.037 38.8347Z" fill="#C97A7A"/>
<path d="M504.676 90.7559H327.324C325.313 90.7559 323.684 92.3846 323.684 94.3937V120.85C323.684 122.86 325.313 124.488 327.324 124.488H504.676C506.687 124.488 508.316 122.86 508.316 120.85V94.3937C508.316 92.3846 506.687 90.7559 504.676 90.7559Z" fill="white" stroke="#E9E9E9"/>
<path d="M430.559 104.976H336.588C335.126 104.976 333.941 106.161 333.941 107.622C333.941 109.083 335.126 110.268 336.588 110.268H430.559C432.021 110.268 433.206 109.083 433.206 107.622C433.206 106.161 432.021 104.976 430.559 104.976Z" fill="#F89B9B"/>
<path d="M352.801 85.1339H324.346C323.797 85.1339 323.353 85.578 323.353 86.126C323.353 86.6739 323.797 87.1181 324.346 87.1181H352.801C353.35 87.1181 353.794 86.6739 353.794 86.126C353.794 85.578 353.35 85.1339 352.801 85.1339Z" fill="#C97A7A"/>
<path d="M504.676 137.055H327.324C325.313 137.055 323.684 138.684 323.684 140.693V167.15C323.684 169.159 325.313 170.787 327.324 170.787H504.676C506.687 170.787 508.316 169.159 508.316 167.15V140.693C508.316 138.684 506.687 137.055 504.676 137.055Z" fill="white" stroke="#E9E9E9"/>
<path d="M408.059 151.276H336.588C335.126 151.276 333.941 152.46 333.941 153.921C333.941 155.382 335.126 156.567 336.588 156.567H408.059C409.521 156.567 410.706 155.382 410.706 153.921C410.706 152.46 409.521 151.276 408.059 151.276Z" fill="#F89B9B"/>
<path d="M366.037 131.433H324.346C323.797 131.433 323.353 131.877 323.353 132.425C323.353 132.973 323.797 133.417 324.346 133.417H366.037C366.585 133.417 367.029 132.973 367.029 132.425C367.029 131.877 366.585 131.433 366.037 131.433Z" fill="#C97A7A"/>
<path d="M504.676 183.354H327.324C325.313 183.354 323.684 184.983 323.684 186.992V213.449C323.684 215.458 325.313 217.087 327.324 217.087H504.676C506.687 217.087 508.316 215.458 508.316 213.449V186.992C508.316 184.983 506.687 183.354 504.676 183.354Z" fill="white" stroke="#E9E9E9"/>
<path d="M430.559 197.575H336.588C335.126 197.575 333.941 198.759 333.941 200.22C333.941 201.682 335.126 202.866 336.588 202.866H430.559C432.021 202.866 433.206 201.682 433.206 200.22C433.206 198.759 432.021 197.575 430.559 197.575Z" fill="#F89B9B"/>
<path d="M357.434 177.732H324.346C323.797 177.732 323.353 178.176 323.353 178.724C323.353 179.272 323.797 179.717 324.346 179.717H357.434C357.982 179.717 358.426 179.272 358.426 178.724C358.426 178.176 357.982 177.732 357.434 177.732Z" fill="#C97A7A"/>
<path d="M505.338 227.339H326.662C324.834 227.339 323.353 228.819 323.353 230.646V246.52C323.353 248.346 324.834 249.827 326.662 249.827H505.338C507.166 249.827 508.647 248.346 508.647 246.52V230.646C508.647 228.819 507.166 227.339 505.338 227.339Z" fill="#E66161"/>
<path d="M439.824 237.26H392.176C391.446 237.26 390.853 237.852 390.853 238.583C390.853 239.313 391.446 239.905 392.176 239.905H439.824C440.554 239.905 441.147 239.313 441.147 238.583C441.147 237.852 440.554 237.26 439.824 237.26Z" fill="white"/>
</g>
<g clip-path="url(#clip2_17_149)">
<path d="M262.407 -81H6.59314C2.95185 -81 0 -78.0387 0 -74.3858L0 248.386C0 252.039 2.95185 255 6.59314 255H262.407C266.048 255 269 252.039 269 248.386V-74.3858C269 -78.0387 266.048 -81 262.407 -81Z" fill="#E8F1FF"/>
<path d="M222.848 9.28345L46.152 9.28345C44.1493 9.28345 42.5257 10.9121 42.5257 12.9212V39.3779C42.5257 41.387 44.1493 43.0157 46.152 43.0157H222.848C224.851 43.0157 226.474 41.387 226.474 39.3779V12.9212C226.474 10.9121 224.851 9.28345 222.848 9.28345Z" fill="white" stroke="#EAEAEA"/>
<path d="M217.574 24.6316L216.644 23.699L213.618 26.7283L210.591 23.699L209.662 24.6316L213.618 28.6001L217.574 24.6316Z" fill="#C4C2FF"/>
<path d="M84.7218 3.66141L43.185 3.66141C42.6389 3.66141 42.1961 4.1056 42.1961 4.65353C42.1961 5.20147 42.6389 5.64566 43.185 5.64566H84.7218C85.268 5.64566 85.7108 5.20147 85.7108 4.65353C85.7108 4.1056 85.268 3.66141 84.7218 3.66141Z" fill="#C4C2FF"/>
<path d="M222.848 55.5827H141.752C139.75 55.5827 138.126 57.2114 138.126 59.2205V85.6772C138.126 87.6863 139.75 89.315 141.752 89.315H222.848C224.851 89.315 226.474 87.6863 226.474 85.6772V59.2205C226.474 57.2114 224.851 55.5827 222.848 55.5827Z" fill="white" stroke="#EAEAEA"/>
<path d="M193.179 69.8032H150.983C149.526 69.8032 148.346 70.9877 148.346 72.4488C148.346 73.91 149.526 75.0945 150.983 75.0945H193.179C194.635 75.0945 195.816 73.91 195.816 72.4488C195.816 70.9877 194.635 69.8032 193.179 69.8032Z" fill="#7A77FF"/>
<path d="M157.977 49.9606H138.786C138.239 49.9606 137.797 50.4048 137.797 50.9528C137.797 51.5007 138.239 51.9449 138.786 51.9449H157.977C158.523 51.9449 158.966 51.5007 158.966 50.9528C158.966 50.4048 158.523 49.9606 157.977 49.9606Z" fill="#C4C2FF"/>
<path d="M127.248 55.5827H46.152C44.1493 55.5827 42.5257 57.2114 42.5257 59.2205V85.6772C42.5257 87.6863 44.1493 89.315 46.152 89.315H127.248C129.25 89.315 130.874 87.6863 130.874 85.6772V59.2205C130.874 57.2114 129.25 55.5827 127.248 55.5827Z" fill="white" stroke="#EAEAEA"/>
<path d="M97.5784 69.8032H55.3824C53.9258 69.8032 52.7451 70.9877 52.7451 72.4488C52.7451 73.91 53.9258 75.0945 55.3824 75.0945H97.5784C99.035 75.0945 100.216 73.91 100.216 72.4488C100.216 70.9877 99.035 69.8032 97.5784 69.8032Z" fill="#7A77FF"/>
<path d="M61.9755 49.9606H43.185C42.6389 49.9606 42.1961 50.4048 42.1961 50.9528C42.1961 51.5007 42.6389 51.9449 43.185 51.9449H61.9755C62.5217 51.9449 62.9645 51.5007 62.9645 50.9528C62.9645 50.4048 62.5217 49.9606 61.9755 49.9606Z" fill="#C4C2FF"/>
<path d="M222.848 101.882H46.152C44.1493 101.882 42.5257 103.511 42.5257 105.52V180.26C42.5257 182.269 44.1493 183.898 46.152 183.898H222.848C224.851 183.898 226.474 182.269 226.474 180.26V105.52C226.474 103.511 224.851 101.882 222.848 101.882Z" fill="white" stroke="#EAEAEA"/>
<path d="M149.005 116.102H55.3824C53.9258 116.102 52.7451 117.287 52.7451 118.748C52.7451 120.209 53.9258 121.394 55.3824 121.394H149.005C150.461 121.394 151.642 120.209 151.642 118.748C151.642 117.287 150.461 116.102 149.005 116.102Z" fill="#7A77FF"/>
<path d="M84.7218 96.2598H43.185C42.6389 96.2598 42.1961 96.704 42.1961 97.252C42.1961 97.7999 42.6389 98.2441 43.185 98.2441H84.7218C85.268 98.2441 85.7108 97.7999 85.7108 97.252C85.7108 96.704 85.268 96.2598 84.7218 96.2598Z" fill="#C4C2FF"/>
<path d="M215.596 194.15H53.4044C47.2142 194.15 42.1961 199.184 42.1961 205.394C42.1961 211.604 47.2142 216.638 53.4044 216.638H215.596C221.786 216.638 226.804 211.604 226.804 205.394C226.804 199.184 221.786 194.15 215.596 194.15Z" fill="#4F4DB0"/>
<path d="M158.235 204.071H110.765C110.036 204.071 109.446 204.663 109.446 205.394C109.446 206.124 110.036 206.717 110.765 206.717H158.235C158.964 206.717 159.554 206.124 159.554 205.394C159.554 204.663 158.964 204.071 158.235 204.071Z" fill="white"/>
</g>
<g clip-path="url(#clip3_17_149)">
<path d="M262.407 267H6.59314C2.95185 267 0 269.961 0 273.614L0 596.386C0 600.039 2.95185 603 6.59314 603H262.407C266.048 603 269 600.039 269 596.386V273.614C269 269.961 266.048 267 262.407 267Z" fill="#EFFFFD"/>
<path d="M234.716 321.236H34.2843C32.4637 321.236 30.9877 322.717 30.9877 324.543V546.118C30.9877 547.945 32.4637 549.425 34.2843 549.425H234.716C236.536 549.425 238.012 547.945 238.012 546.118V324.543C238.012 322.717 236.536 321.236 234.716 321.236Z" fill="white"/>
<path d="M50.1078 343.063C46.4684 343.063 43.5147 346.026 43.5147 349.677C43.5147 353.328 46.4684 356.291 50.1078 356.291C53.7473 356.291 56.701 353.328 56.701 349.677C56.701 346.026 53.7473 343.063 50.1078 343.063ZM50.1078 354.969C47.1937 354.969 44.8333 352.601 44.8333 349.677C44.8333 346.754 47.1937 344.386 50.1078 344.386C53.022 344.386 55.3824 346.754 55.3824 349.677C55.3824 352.601 53.022 354.969 50.1078 354.969Z" fill="#2B8E95"/>
<path d="M50.1078 352.984C51.9285 352.984 53.4044 351.503 53.4044 349.677C53.4044 347.851 51.9285 346.37 50.1078 346.37C48.2872 346.37 46.8113 347.851 46.8113 349.677C46.8113 351.503 48.2872 352.984 50.1078 352.984Z" fill="#2B8E95"/>
<path d="M88.348 347.693H62.6348C61.5424 347.693 60.6569 348.581 60.6569 349.677C60.6569 350.773 61.5424 351.661 62.6348 351.661H88.348C89.4404 351.661 90.326 350.773 90.326 349.677C90.326 348.581 89.4404 347.693 88.348 347.693Z" fill="#3EB0B0"/>
<path d="M104.831 343.063C101.191 343.063 98.2377 346.026 98.2377 349.677C98.2377 353.328 101.191 356.291 104.831 356.291C108.47 356.291 111.424 353.328 111.424 349.677C111.424 346.026 108.47 343.063 104.831 343.063ZM104.831 354.969C101.917 354.969 99.5564 352.601 99.5564 349.677C99.5564 346.754 101.917 344.386 104.831 344.386C107.745 344.386 110.105 346.754 110.105 349.677C110.105 352.601 107.745 354.969 104.831 354.969Z" fill="#2B8E95"/>
<path d="M156.917 347.693H117.358C116.265 347.693 115.38 348.581 115.38 349.677C115.38 350.773 116.265 351.661 117.358 351.661H156.917C158.009 351.661 158.895 350.773 158.895 349.677C158.895 348.581 158.009 347.693 156.917 347.693Z" fill="#3EB0B0"/>
<path d="M173.4 343.063C169.76 343.063 166.806 346.026 166.806 349.677C166.806 353.328 169.76 356.291 173.4 356.291C177.039 356.291 179.993 353.328 179.993 349.677C179.993 346.026 177.039 343.063 173.4 343.063ZM173.4 354.969C170.485 354.969 168.125 352.601 168.125 349.677C168.125 346.754 170.485 344.386 173.4 344.386C176.314 344.386 178.674 346.754 178.674 349.677C178.674 352.601 176.314 354.969 173.4 354.969Z" fill="#2B8E95"/>
<path d="M222.189 347.693H185.926C184.834 347.693 183.949 348.581 183.949 349.677C183.949 350.773 184.834 351.661 185.926 351.661H222.189C223.281 351.661 224.167 350.773 224.167 349.677C224.167 348.581 223.281 347.693 222.189 347.693Z" fill="#3EB0B0"/>
<path d="M222.848 373.157H116.039C114.037 373.157 112.413 374.786 112.413 376.795V403.252C112.413 405.261 114.037 406.89 116.039 406.89H222.848C224.851 406.89 226.474 405.261 226.474 403.252V376.795C226.474 374.786 224.851 373.157 222.848 373.157Z" fill="white" stroke="#DADADA"/>
<path d="M138.379 367.535H113.072C112.526 367.535 112.083 367.98 112.083 368.528C112.083 369.075 112.526 369.52 113.072 369.52H138.379C138.925 369.52 139.368 369.075 139.368 368.528C139.368 367.98 138.925 367.535 138.379 367.535Z" fill="#2B8E95"/>
<path d="M101.534 373.157H46.152C44.1493 373.157 42.5257 374.786 42.5257 376.795V403.252C42.5257 405.261 44.1493 406.89 46.152 406.89H101.534C103.537 406.89 105.161 405.261 105.161 403.252V376.795C105.161 374.786 103.537 373.157 101.534 373.157Z" fill="white" stroke="#DADADA"/>
<path d="M98.1613 388.506L97.2217 387.573L94.1638 390.602L91.106 387.573L90.1664 388.506L94.1638 392.474L98.1613 388.506Z" fill="#2B8E95"/>
<path d="M62.1941 367.535H43.185C42.6389 367.535 42.1961 367.98 42.1961 368.528C42.1961 369.075 42.6389 369.52 43.185 369.52H62.1941C62.7403 369.52 63.1831 369.075 63.1831 368.528C63.1831 367.98 62.7403 367.535 62.1941 367.535Z" fill="#2B8E95"/>
<path d="M222.848 419.457H46.152C44.1493 419.457 42.5257 421.085 42.5257 423.094V449.551C42.5257 451.56 44.1493 453.189 46.152 453.189H222.848C224.851 453.189 226.474 451.56 226.474 449.551V423.094C226.474 421.085 224.851 419.457 222.848 419.457Z" fill="white" stroke="#DADADA"/>
<path d="M72.1949 413.835H43.185C42.6389 413.835 42.1961 414.279 42.1961 414.827C42.1961 415.375 42.6389 415.819 43.185 415.819H72.1949C72.741 415.819 73.1838 415.375 73.1838 414.827C73.1838 414.279 72.741 413.835 72.1949 413.835Z" fill="#2B8E95"/>
<path d="M222.848 465.756H46.152C44.1493 465.756 42.5257 467.385 42.5257 469.394V495.85C42.5257 497.859 44.1493 499.488 46.152 499.488H222.848C224.851 499.488 226.474 497.859 226.474 495.85V469.394C226.474 467.385 224.851 465.756 222.848 465.756Z" fill="white" stroke="#DADADA"/>
<path d="M84.7218 460.134H43.185C42.6389 460.134 42.1961 460.578 42.1961 461.126C42.1961 461.674 42.6389 462.118 43.185 462.118H84.7218C85.268 462.118 85.7108 461.674 85.7108 461.126C85.7108 460.578 85.268 460.134 84.7218 460.134Z" fill="#2B8E95"/>
<path d="M222.189 509.74H46.8113C44.2624 509.74 42.1961 511.813 42.1961 514.37V527.598C42.1961 530.155 44.2624 532.228 46.8113 532.228H222.189C224.738 532.228 226.804 530.155 226.804 527.598V514.37C226.804 511.813 224.738 509.74 222.189 509.74Z" fill="#2B8E95"/>
<path d="M158.235 519.661H110.765C110.036 519.661 109.446 520.254 109.446 520.984C109.446 521.715 110.036 522.307 110.765 522.307H158.235C158.964 522.307 159.554 521.715 159.554 520.984C159.554 520.254 158.964 519.661 158.235 519.661Z" fill="white"/>
</g>
<defs>
<clipPath id="clip0_17_149">
<rect width="269" height="336" fill="white" transform="translate(281 324)"/>
</clipPath>
<clipPath id="clip1_17_149">
<rect width="270" height="336" fill="white" transform="translate(281 -24)"/>
</clipPath>
<clipPath id="clip2_17_149">
<rect width="269" height="336" fill="white" transform="translate(0 -81)"/>
</clipPath>
<clipPath id="clip3_17_149">
<rect width="269" height="336" fill="white" transform="translate(0 267)"/>
</clipPath>
</defs>
</svg>
