<svg width="66" height="79" viewBox="0 0 66 79" fill="none" xmlns="http://www.w3.org/2000/svg">
<path d="M8.06308 35.1828C6.81374 33.3609 4.32399 32.8967 2.50205 34.146C0.680106 35.3954 0.215914 37.8851 1.46524 39.7071L8.06308 35.1828ZM27.4976 70.5978L24.1986 72.8599L27.9892 78.3879L31.0547 72.4272L27.4976 70.5978ZM65.1548 6.12146C66.1651 4.1569 65.3916 1.74526 63.427 0.734917C61.4625 -0.275428 59.0508 0.498116 58.0405 2.46268L65.1548 6.12146ZM1.46524 39.7071L24.1986 72.8599L30.7965 68.3357L8.06308 35.1828L1.46524 39.7071ZM31.0547 72.4272L65.1548 6.12146L58.0405 2.46268L23.9404 68.7684L31.0547 72.4272Z" fill="white"/>
</svg>
