<svg width="236" height="82" viewBox="0 0 236 82" fill="none" xmlns="http://www.w3.org/2000/svg">
<path d="M81.914 50.156C80.874 50.156 79.912 49.9307 79.028 49.48C78.144 49.0293 77.4247 48.388 76.87 47.556L78.014 46.256C79.0193 47.7467 80.328 48.492 81.94 48.492C84.1933 48.492 85.32 47.1573 85.32 44.488V33.464H78.664V31.8H87.218V44.41C87.218 46.3167 86.7673 47.7553 85.866 48.726C84.982 49.6793 83.6647 50.156 81.914 50.156ZM104.923 36.324V50H103.155V47.504C102.67 48.336 102.003 48.986 101.153 49.454C100.304 49.9047 99.3334 50.13 98.2414 50.13C96.4561 50.13 95.0434 49.636 94.0034 48.648C92.9807 47.6427 92.4694 46.178 92.4694 44.254V36.324H94.3154V44.072C94.3154 45.5107 94.6707 46.6027 95.3814 47.348C96.0921 48.0933 97.1061 48.466 98.4234 48.466C99.8621 48.466 100.997 48.0327 101.829 47.166C102.661 46.282 103.077 45.06 103.077 43.5V36.324H104.923ZM113.76 50.13C112.65 50.13 111.584 49.974 110.562 49.662C109.556 49.3327 108.768 48.9253 108.196 48.44L109.028 46.984C109.6 47.4347 110.319 47.8073 111.186 48.102C112.052 48.3793 112.954 48.518 113.89 48.518C115.138 48.518 116.056 48.3273 116.646 47.946C117.252 47.5473 117.556 46.9927 117.556 46.282C117.556 45.7793 117.391 45.3893 117.062 45.112C116.732 44.8173 116.316 44.6007 115.814 44.462C115.311 44.306 114.644 44.1587 113.812 44.02C112.702 43.812 111.81 43.604 111.134 43.396C110.458 43.1707 109.877 42.798 109.392 42.278C108.924 41.758 108.69 41.0387 108.69 40.12C108.69 38.976 109.166 38.04 110.12 37.312C111.073 36.584 112.399 36.22 114.098 36.22C114.982 36.22 115.866 36.3413 116.75 36.584C117.634 36.8093 118.362 37.1127 118.934 37.494L118.128 38.976C117.001 38.196 115.658 37.806 114.098 37.806C112.919 37.806 112.026 38.014 111.42 38.43C110.83 38.846 110.536 39.392 110.536 40.068C110.536 40.588 110.7 41.004 111.03 41.316C111.376 41.628 111.801 41.862 112.304 42.018C112.806 42.1567 113.5 42.304 114.384 42.46C115.476 42.668 116.351 42.876 117.01 43.084C117.668 43.292 118.232 43.6473 118.7 44.15C119.168 44.6527 119.402 45.346 119.402 46.23C119.402 47.426 118.899 48.3793 117.894 49.09C116.906 49.7833 115.528 50.13 113.76 50.13ZM130.016 49.168C129.67 49.48 129.236 49.7227 128.716 49.896C128.214 50.052 127.685 50.13 127.13 50.13C125.848 50.13 124.86 49.7833 124.166 49.09C123.473 48.3967 123.126 47.4173 123.126 46.152V37.884H120.682V36.324H123.126V33.334H124.972V36.324H129.132V37.884H124.972V46.048C124.972 46.8627 125.172 47.4867 125.57 47.92C125.986 48.336 126.576 48.544 127.338 48.544C127.72 48.544 128.084 48.4833 128.43 48.362C128.794 48.2407 129.106 48.0673 129.366 47.842L130.016 49.168ZM148.899 31.8L140.839 50H138.941L130.881 31.8H132.961L139.929 47.608L146.949 31.8H148.899ZM154.893 36.22C156.678 36.22 158.048 36.6707 159.001 37.572C159.954 38.456 160.431 39.7733 160.431 41.524V50H158.663V47.868C158.247 48.5787 157.632 49.1333 156.817 49.532C156.02 49.9307 155.066 50.13 153.957 50.13C152.432 50.13 151.218 49.766 150.317 49.038C149.416 48.31 148.965 47.348 148.965 46.152C148.965 44.9907 149.381 44.0547 150.213 43.344C151.062 42.6333 152.406 42.278 154.243 42.278H158.585V41.446C158.585 40.2673 158.256 39.3747 157.597 38.768C156.938 38.144 155.976 37.832 154.711 37.832C153.844 37.832 153.012 37.9793 152.215 38.274C151.418 38.5513 150.733 38.9413 150.161 39.444L149.329 38.066C150.022 37.4767 150.854 37.026 151.825 36.714C152.796 36.3847 153.818 36.22 154.893 36.22ZM154.243 48.674C155.283 48.674 156.176 48.44 156.921 47.972C157.666 47.4867 158.221 46.7933 158.585 45.892V43.656H154.295C151.955 43.656 150.785 44.4707 150.785 46.1C150.785 46.8973 151.088 47.53 151.695 47.998C152.302 48.4487 153.151 48.674 154.243 48.674ZM165.445 30.708H167.291V50H165.445V30.708ZM172.428 36.324H174.274V50H172.428V36.324ZM173.364 33.334C172.982 33.334 172.662 33.204 172.402 32.944C172.142 32.684 172.012 32.372 172.012 32.008C172.012 31.6613 172.142 31.358 172.402 31.098C172.662 30.838 172.982 30.708 173.364 30.708C173.745 30.708 174.066 30.838 174.326 31.098C174.586 31.3407 174.716 31.6353 174.716 31.982C174.716 32.3633 174.586 32.684 174.326 32.944C174.066 33.204 173.745 33.334 173.364 33.334ZM191.89 30.708V50H190.122V47.296C189.567 48.2147 188.831 48.9167 187.912 49.402C187.011 49.8873 185.988 50.13 184.844 50.13C183.561 50.13 182.4 49.8353 181.36 49.246C180.32 48.6567 179.505 47.8333 178.916 46.776C178.327 45.7187 178.032 44.514 178.032 43.162C178.032 41.81 178.327 40.6053 178.916 39.548C179.505 38.4907 180.32 37.676 181.36 37.104C182.4 36.5147 183.561 36.22 184.844 36.22C185.953 36.22 186.95 36.454 187.834 36.922C188.735 37.3727 189.472 38.04 190.044 38.924V30.708H191.89ZM185 48.492C185.953 48.492 186.811 48.2753 187.574 47.842C188.354 47.3913 188.961 46.7587 189.394 45.944C189.845 45.1293 190.07 44.202 190.07 43.162C190.07 42.122 189.845 41.1947 189.394 40.38C188.961 39.5653 188.354 38.9413 187.574 38.508C186.811 38.0573 185.953 37.832 185 37.832C184.029 37.832 183.154 38.0573 182.374 38.508C181.611 38.9413 181.005 39.5653 180.554 40.38C180.121 41.1947 179.904 42.122 179.904 43.162C179.904 44.202 180.121 45.1293 180.554 45.944C181.005 46.7587 181.611 47.3913 182.374 47.842C183.154 48.2753 184.029 48.492 185 48.492ZM201.815 36.22C203.6 36.22 204.97 36.6707 205.923 37.572C206.876 38.456 207.353 39.7733 207.353 41.524V50H205.585V47.868C205.169 48.5787 204.554 49.1333 203.739 49.532C202.942 49.9307 201.988 50.13 200.879 50.13C199.354 50.13 198.14 49.766 197.239 49.038C196.338 48.31 195.887 47.348 195.887 46.152C195.887 44.9907 196.303 44.0547 197.135 43.344C197.984 42.6333 199.328 42.278 201.165 42.278H205.507V41.446C205.507 40.2673 205.178 39.3747 204.519 38.768C203.86 38.144 202.898 37.832 201.633 37.832C200.766 37.832 199.934 37.9793 199.137 38.274C198.34 38.5513 197.655 38.9413 197.083 39.444L196.251 38.066C196.944 37.4767 197.776 37.026 198.747 36.714C199.718 36.3847 200.74 36.22 201.815 36.22ZM201.165 48.674C202.205 48.674 203.098 48.44 203.843 47.972C204.588 47.4867 205.143 46.7933 205.507 45.892V43.656H201.217C198.877 43.656 197.707 44.4707 197.707 46.1C197.707 46.8973 198.01 47.53 198.617 47.998C199.224 48.4487 200.073 48.674 201.165 48.674ZM219.569 49.168C219.222 49.48 218.789 49.7227 218.269 49.896C217.766 50.052 217.238 50.13 216.683 50.13C215.4 50.13 214.412 49.7833 213.719 49.09C213.026 48.3967 212.679 47.4173 212.679 46.152V37.884H210.235V36.324H212.679V33.334H214.525V36.324H218.685V37.884H214.525V46.048C214.525 46.8627 214.724 47.4867 215.123 47.92C215.539 48.336 216.128 48.544 216.891 48.544C217.272 48.544 217.636 48.4833 217.983 48.362C218.347 48.2407 218.659 48.0673 218.919 47.842L219.569 49.168ZM234.355 43.734H222.915C223.019 45.1553 223.565 46.308 224.553 47.192C225.541 48.0587 226.789 48.492 228.297 48.492C229.146 48.492 229.926 48.3447 230.637 48.05C231.348 47.738 231.963 47.2873 232.483 46.698L233.523 47.894C232.916 48.622 232.154 49.1767 231.235 49.558C230.334 49.9393 229.337 50.13 228.245 50.13C226.841 50.13 225.593 49.8353 224.501 49.246C223.426 48.6393 222.586 47.8073 221.979 46.75C221.372 45.6927 221.069 44.4967 221.069 43.162C221.069 41.8273 221.355 40.6313 221.927 39.574C222.516 38.5167 223.314 37.6933 224.319 37.104C225.342 36.5147 226.486 36.22 227.751 36.22C229.016 36.22 230.152 36.5147 231.157 37.104C232.162 37.6933 232.951 38.5167 233.523 39.574C234.095 40.614 234.381 41.81 234.381 43.162L234.355 43.734ZM227.751 37.806C226.434 37.806 225.324 38.2307 224.423 39.08C223.539 39.912 223.036 41.004 222.915 42.356H232.613C232.492 41.004 231.98 39.912 231.079 39.08C230.195 38.2307 229.086 37.806 227.751 37.806Z" fill="black"/>
<path d="M59.5285 18.6845L50.971 68.1797L12.3857 36.0211L59.5285 18.6845Z" fill="#A239EA"/>
<path d="M60.426 62.4593L12.6122 47.0696L49.847 13.3565L60.426 62.4593Z" fill="#5C33F6"/>
<path d="M35.8247 39.4345C35.5124 38.979 34.89 38.8629 34.4345 39.1753C33.979 39.4876 33.8629 40.11 34.1753 40.5655L35.8247 39.4345ZM39.8 47L38.9753 47.5655L39.9229 48.9475L40.6893 47.4573L39.8 47ZM47.8893 33.4573C48.1419 32.9662 47.9485 32.3633 47.4573 32.1107C46.9662 31.8581 46.3633 32.0515 46.1107 32.5427L47.8893 33.4573ZM34.1753 40.5655L38.9753 47.5655L40.6247 46.4345L35.8247 39.4345L34.1753 40.5655ZM40.6893 47.4573L47.8893 33.4573L46.1107 32.5427L38.9107 46.5427L40.6893 47.4573Z" fill="white"/>
</svg>
