<svg width="223" height="56" viewBox="0 0 223 56" fill="none" xmlns="http://www.w3.org/2000/svg">
<g clip-path="url(#clip0_90_501)">
<path d="M69.914 37.156C68.874 37.156 67.912 36.9307 67.028 36.48C66.144 36.0293 65.4247 35.388 64.87 34.556L66.014 33.256C67.0193 34.7467 68.328 35.492 69.94 35.492C72.1933 35.492 73.32 34.1573 73.32 31.488V20.464H66.664V18.8H75.218V31.41C75.218 33.3167 74.7673 34.7553 73.866 35.726C72.982 36.6793 71.6647 37.156 69.914 37.156ZM92.923 23.324V37H91.155V34.504C90.67 35.336 90.003 35.986 89.153 36.454C88.304 36.9047 87.3334 37.13 86.2414 37.13C84.4561 37.13 83.0434 36.636 82.0034 35.648C80.9807 34.6427 80.4694 33.178 80.4694 31.254V23.324H82.3154V31.072C82.3154 32.5107 82.6707 33.6027 83.3814 34.348C84.0921 35.0933 85.1061 35.466 86.4234 35.466C87.8621 35.466 88.997 35.0327 89.829 34.166C90.661 33.282 91.077 32.06 91.077 30.5V23.324H92.923ZM101.76 37.13C100.65 37.13 99.584 36.974 98.562 36.662C97.556 36.3327 96.768 35.9253 96.196 35.44L97.028 33.984C97.6 34.4347 98.319 34.8073 99.186 35.102C100.052 35.3793 100.954 35.518 101.89 35.518C103.138 35.518 104.056 35.3273 104.646 34.946C105.252 34.5473 105.556 33.9927 105.556 33.282C105.556 32.7793 105.391 32.3893 105.062 32.112C104.732 31.8173 104.316 31.6007 103.814 31.462C103.311 31.306 102.644 31.1587 101.812 31.02C100.702 30.812 99.81 30.604 99.134 30.396C98.458 30.1707 97.877 29.798 97.392 29.278C96.924 28.758 96.69 28.0387 96.69 27.12C96.69 25.976 97.166 25.04 98.12 24.312C99.073 23.584 100.399 23.22 102.098 23.22C102.982 23.22 103.866 23.3413 104.75 23.584C105.634 23.8093 106.362 24.1127 106.934 24.494L106.128 25.976C105.001 25.196 103.658 24.806 102.098 24.806C100.919 24.806 100.026 25.014 99.42 25.43C98.83 25.846 98.536 26.392 98.536 27.068C98.536 27.588 98.7 28.004 99.03 28.316C99.376 28.628 99.801 28.862 100.304 29.018C100.806 29.1567 101.5 29.304 102.384 29.46C103.476 29.668 104.351 29.876 105.01 30.084C105.668 30.292 106.232 30.6473 106.7 31.15C107.168 31.6527 107.402 32.346 107.402 33.23C107.402 34.426 106.899 35.3793 105.894 36.09C104.906 36.7833 103.528 37.13 101.76 37.13ZM118.016 36.168C117.67 36.48 117.236 36.7227 116.716 36.896C116.214 37.052 115.685 37.13 115.13 37.13C113.848 37.13 112.86 36.7833 112.166 36.09C111.473 35.3967 111.126 34.4173 111.126 33.152V24.884H108.682V23.324H111.126V20.334H112.972V23.324H117.132V24.884H112.972V33.048C112.972 33.8627 113.172 34.4867 113.57 34.92C113.986 35.336 114.576 35.544 115.338 35.544C115.72 35.544 116.084 35.4833 116.43 35.362C116.794 35.2407 117.106 35.0673 117.366 34.842L118.016 36.168ZM136.899 18.8L128.839 37H126.941L118.881 18.8H120.961L127.929 34.608L134.949 18.8H136.899ZM142.893 23.22C144.678 23.22 146.048 23.6707 147.001 24.572C147.954 25.456 148.431 26.7733 148.431 28.524V37H146.663V34.868C146.247 35.5787 145.632 36.1333 144.817 36.532C144.02 36.9307 143.066 37.13 141.957 37.13C140.432 37.13 139.218 36.766 138.317 36.038C137.416 35.31 136.965 34.348 136.965 33.152C136.965 31.9907 137.381 31.0547 138.213 30.344C139.062 29.6333 140.406 29.278 142.243 29.278H146.585V28.446C146.585 27.2673 146.256 26.3747 145.597 25.768C144.938 25.144 143.976 24.832 142.711 24.832C141.844 24.832 141.012 24.9793 140.215 25.274C139.418 25.5513 138.733 25.9413 138.161 26.444L137.329 25.066C138.022 24.4767 138.854 24.026 139.825 23.714C140.796 23.3847 141.818 23.22 142.893 23.22ZM142.243 35.674C143.283 35.674 144.176 35.44 144.921 34.972C145.666 34.4867 146.221 33.7933 146.585 32.892V30.656H142.295C139.955 30.656 138.785 31.4707 138.785 33.1C138.785 33.8973 139.088 34.53 139.695 34.998C140.302 35.4487 141.151 35.674 142.243 35.674ZM153.445 17.708H155.291V37H153.445V17.708ZM160.428 23.324H162.274V37H160.428V23.324ZM161.364 20.334C160.982 20.334 160.662 20.204 160.402 19.944C160.142 19.684 160.012 19.372 160.012 19.008C160.012 18.6613 160.142 18.358 160.402 18.098C160.662 17.838 160.982 17.708 161.364 17.708C161.745 17.708 162.066 17.838 162.326 18.098C162.586 18.3407 162.716 18.6353 162.716 18.982C162.716 19.3633 162.586 19.684 162.326 19.944C162.066 20.204 161.745 20.334 161.364 20.334ZM179.89 17.708V37H178.122V34.296C177.567 35.2147 176.831 35.9167 175.912 36.402C175.011 36.8873 173.988 37.13 172.844 37.13C171.561 37.13 170.4 36.8353 169.36 36.246C168.32 35.6567 167.505 34.8333 166.916 33.776C166.327 32.7187 166.032 31.514 166.032 30.162C166.032 28.81 166.327 27.6053 166.916 26.548C167.505 25.4907 168.32 24.676 169.36 24.104C170.4 23.5147 171.561 23.22 172.844 23.22C173.953 23.22 174.95 23.454 175.834 23.922C176.735 24.3727 177.472 25.04 178.044 25.924V17.708H179.89ZM173 35.492C173.953 35.492 174.811 35.2753 175.574 34.842C176.354 34.3913 176.961 33.7587 177.394 32.944C177.845 32.1293 178.07 31.202 178.07 30.162C178.07 29.122 177.845 28.1947 177.394 27.38C176.961 26.5653 176.354 25.9413 175.574 25.508C174.811 25.0573 173.953 24.832 173 24.832C172.029 24.832 171.154 25.0573 170.374 25.508C169.611 25.9413 169.005 26.5653 168.554 27.38C168.121 28.1947 167.904 29.122 167.904 30.162C167.904 31.202 168.121 32.1293 168.554 32.944C169.005 33.7587 169.611 34.3913 170.374 34.842C171.154 35.2753 172.029 35.492 173 35.492ZM189.815 23.22C191.6 23.22 192.97 23.6707 193.923 24.572C194.876 25.456 195.353 26.7733 195.353 28.524V37H193.585V34.868C193.169 35.5787 192.554 36.1333 191.739 36.532C190.942 36.9307 189.988 37.13 188.879 37.13C187.354 37.13 186.14 36.766 185.239 36.038C184.338 35.31 183.887 34.348 183.887 33.152C183.887 31.9907 184.303 31.0547 185.135 30.344C185.984 29.6333 187.328 29.278 189.165 29.278H193.507V28.446C193.507 27.2673 193.178 26.3747 192.519 25.768C191.86 25.144 190.898 24.832 189.633 24.832C188.766 24.832 187.934 24.9793 187.137 25.274C186.34 25.5513 185.655 25.9413 185.083 26.444L184.251 25.066C184.944 24.4767 185.776 24.026 186.747 23.714C187.718 23.3847 188.74 23.22 189.815 23.22ZM189.165 35.674C190.205 35.674 191.098 35.44 191.843 34.972C192.588 34.4867 193.143 33.7933 193.507 32.892V30.656H189.217C186.877 30.656 185.707 31.4707 185.707 33.1C185.707 33.8973 186.01 34.53 186.617 34.998C187.224 35.4487 188.073 35.674 189.165 35.674ZM207.569 36.168C207.222 36.48 206.789 36.7227 206.269 36.896C205.766 37.052 205.238 37.13 204.683 37.13C203.4 37.13 202.412 36.7833 201.719 36.09C201.026 35.3967 200.679 34.4173 200.679 33.152V24.884H198.235V23.324H200.679V20.334H202.525V23.324H206.685V24.884H202.525V33.048C202.525 33.8627 202.724 34.4867 203.123 34.92C203.539 35.336 204.128 35.544 204.891 35.544C205.272 35.544 205.636 35.4833 205.983 35.362C206.347 35.2407 206.659 35.0673 206.919 34.842L207.569 36.168ZM222.355 30.734H210.915C211.019 32.1553 211.565 33.308 212.553 34.192C213.541 35.0587 214.789 35.492 216.297 35.492C217.146 35.492 217.926 35.3447 218.637 35.05C219.348 34.738 219.963 34.2873 220.483 33.698L221.523 34.894C220.916 35.622 220.154 36.1767 219.235 36.558C218.334 36.9393 217.337 37.13 216.245 37.13C214.841 37.13 213.593 36.8353 212.501 36.246C211.426 35.6393 210.586 34.8073 209.979 33.75C209.372 32.6927 209.069 31.4967 209.069 30.162C209.069 28.8273 209.355 27.6313 209.927 26.574C210.516 25.5167 211.314 24.6933 212.319 24.104C213.342 23.5147 214.486 23.22 215.751 23.22C217.016 23.22 218.152 23.5147 219.157 24.104C220.162 24.6933 220.951 25.5167 221.523 26.574C222.095 27.614 222.381 28.81 222.381 30.162L222.355 30.734ZM215.751 24.806C214.434 24.806 213.324 25.2307 212.423 26.08C211.539 26.912 211.036 28.004 210.915 29.356H220.613C220.492 28.004 219.98 26.912 219.079 26.08C218.195 25.2307 217.086 24.806 215.751 24.806Z" fill="white"/>
<path d="M47.5285 5.68451L38.971 55.1797L0.385742 23.0211L47.5285 5.68451Z" fill="#A239EA"/>
<path d="M48.426 49.4593L0.612183 34.0696L37.847 0.356506L48.426 49.4593Z" fill="#5C33F6"/>
<path d="M23.8247 26.4345C23.5124 25.979 22.89 25.8629 22.4345 26.1753C21.979 26.4876 21.8629 27.11 22.1753 27.5655L23.8247 26.4345ZM27.8 34L26.9753 34.5655L27.9229 35.9475L28.6893 34.4573L27.8 34ZM35.8893 20.4573C36.1419 19.9662 35.9485 19.3633 35.4573 19.1107C34.9662 18.8581 34.3633 19.0515 34.1107 19.5427L35.8893 20.4573ZM22.1753 27.5655L26.9753 34.5655L28.6247 33.4345L23.8247 26.4345L22.1753 27.5655ZM28.6893 34.4573L35.8893 20.4573L34.1107 19.5427L26.9107 33.5427L28.6893 34.4573Z" fill="white"/>
</g>
<defs>
<clipPath id="clip0_90_501">
<rect width="223" height="56" fill="white"/>
</clipPath>
</defs>
</svg>
