<?xml version="1.0" standalone="no"?>
<!DOCTYPE svg PUBLIC "-//W3C//DTD SVG 20010904//EN"
 "http://www.w3.org/TR/2001/REC-SVG-20010904/DTD/svg10.dtd">
<svg version="1.0" xmlns="http://www.w3.org/2000/svg"
 width="1088.000000pt" height="1088.000000pt" viewBox="0 0 1088.000000 1088.000000"
 preserveAspectRatio="xMidYMid meet">
<metadata>
Created by potrace 1.14, written by Peter Selinger 2001-2017
</metadata>
<g transform="translate(0.000000,1088.000000) scale(0.100000,-0.100000)"
fill="#000000" stroke="none">
<path d="M7388 9693 c-96 -87 -241 -219 -323 -293 -82 -74 -437 -396 -790
-715 -352 -319 -797 -722 -988 -895 -288 -261 -357 -319 -405 -339 -52 -21
-257 -97 -827 -306 -110 -40 -348 -128 -530 -195 -181 -67 -420 -155 -530
-195 -110 -40 -373 -137 -585 -215 -212 -78 -476 -175 -587 -215 -112 -41
-210 -78 -219 -83 -12 -7 94 -100 493 -433 279 -233 508 -429 508 -436 0 -6
-222 -212 -493 -457 -278 -252 -487 -448 -480 -451 7 -3 173 -56 368 -119 195
-63 533 -171 750 -241 439 -141 804 -259 1165 -375 744 -239 939 -302 1023
-332 l92 -33 1355 -1130 c745 -621 1359 -1131 1363 -1133 7 -2 45 209 189
1048 25 146 46 266 47 267 1 1 125 -38 276 -86 432 -138 965 -310 983 -317 12
-4 17 -1 17 10 0 18 -117 568 -375 1761 -195 902 -296 1370 -331 1536 l-37
176 67 389 c36 214 100 585 141 824 42 239 116 667 165 950 49 283 121 699
160 924 39 224 68 411 65 414 -3 3 -98 -29 -213 -71 -196 -72 -771 -283 -950
-349 -48 -18 -86 -27 -91 -22 -5 5 -29 110 -55 234 -26 124 -88 410 -137 636
-49 227 -89 415 -89 418 0 18 -34 -9 -192 -151z m-180 -2840 c50 -38 67 -70
66 -131 0 -55 -18 -93 -623 -1267 -343 -665 -632 -1227 -643 -1248 l-19 -39
-93 134 c-50 73 -161 234 -246 358 -84 124 -226 331 -315 460 -319 465 -290
417 -290 481 0 62 17 94 69 133 39 29 133 29 173 0 15 -11 114 -146 220 -300
106 -153 247 -359 314 -456 68 -98 125 -178 128 -178 3 0 11 10 16 23 62 131
1023 1988 1039 2006 11 13 35 30 51 37 40 19 119 12 153 -13z"/>
</g>
</svg>
